Based on found footage, the story centers on four friends in their early 20s. Last year, on the night before Halloween, they decided to go on a self made tour of famous Hollywood murders and celebrity haunted houses. The tour led them to a house known as 1666. They have been missing ever since.
 
iMDB:  http://www.imdb.com/title/tt2093044/

General
 Complete name : Knock Knock 2 2011 DVDRip x264 AAC-UNiQUE.mp4
 Format : MPEG-4
 Format profile : Base Media
 Codec ID : isom
 File size : 1 002 MiB
 Duration : 1h 24mn
 Overall bit rate mode : Variable
 Overall bit rate : 1 660 Kbps
 Encoded date : UTC 2012-08-08 21:46:59
 
Video
 ID : 1
 Format : AVC
 Format/Info : Advanced Video Codec
 Format profile : High@L4.1
 Format settings, CABAC : Yes
 Format settings, ReFrames : 3 frames
 Codec ID : avc1
 Codec ID/Info : Advanced Video Coding
 Duration : 1h 24mn
 Bit rate mode : Variable
 Bit rate : 1 309 Kbps
 Maximum bit rate : 40.0 Mbps
 Width : 720 pixels
 Height : 400 pixels
 Display aspect ratio : 16:9
 Frame rate mode : Constant
 Frame rate : 23.976 fps
 Color space : YUV
 Chroma subsampling : 4:2:0
 Bit depth : 8 bits
 Scan type : Progressive
 Bits/(Pixel*Frame) : 0.190
 Stream size : 790 MiB (79%)
 Writing library : x264 core 125 r2208 d9d2288
 
Audio
 ID : 2
 Format : AAC
 Format/Info : Advanced Audio Codec
 Format profile : LC
 Codec ID : 40
 Duration : 1h 24mn
 Bit rate mode : Variable
 Bit rate : 353 Kbps
 Maximum bit rate : 385 Kbps
 Channel(s) : 6 channels
 Channel positions : Front: L C R, Side: L R, LFE
 Sampling rate : 48.0 KHz
 Compression mode : Lossy
 Stream size : 210 MiB (21%)
 Language : English
 Encoded date : UTC 2012-08-08 21:47:21
 
Sources : DVDR-TTR - Thanks!
  
http://i.imgur.com/OLEUf.jpg 
http://i.imgur.com/9iyzq.jpg 
http://i.imgur.com/PzTtP.jpg 
http://i.imgur.com/2Nndx.jpg